<mxfile host="app.diagrams.net" modified="2023-04-13T07:47:57.506Z" agent="Mozilla/5.0 (Windows NT 10.0; Win64; x64) AppleWebKit/537.36 (KHTML, like Gecko) Chrome/112.0.0.0 Safari/537.36" etag="6az2mUCNiOOPeiFs1E9n" version="21.1.7" type="github">
  <diagram name="Page-1" id="5f0bae14-7c28-e335-631c-24af17079c00">
    <mxGraphModel dx="2757" dy="1707" grid="1" gridSize="10" guides="1" tooltips="1" connect="1" arrows="1" fold="1" page="1" pageScale="1" pageWidth="1100" pageHeight="850" background="none" math="0" shadow="0">
      <root>
        <mxCell id="0" />
        <mxCell id="1" parent="0" />
        <mxCell id="Wp49OkV0YaMOu1lBNxqz-1" value="&amp;lt;&amp;lt;device&amp;gt;&amp;gt; &lt;br&gt;Ubuntu 22.10 Server" style="verticalAlign=top;align=center;spacingTop=8;spacingLeft=2;spacingRight=12;shape=cube;size=10;direction=south;fontStyle=4;html=1;rounded=0;shadow=0;comic=0;labelBackgroundColor=none;strokeWidth=1;fontFamily=Verdana;fontSize=12" vertex="1" parent="1">
          <mxGeometry x="-110" y="-730" width="810" height="550" as="geometry" />
        </mxCell>
        <mxCell id="Wp49OkV0YaMOu1lBNxqz-2" value="Anomaly Management System" style="shape=umlFrame;whiteSpace=wrap;html=1;pointerEvents=0;width=240;height=20;" vertex="1" parent="1">
          <mxGeometry x="-140" y="-790" width="1230" height="860" as="geometry" />
        </mxCell>
        <mxCell id="Wp49OkV0YaMOu1lBNxqz-4" value="&amp;lt;&amp;lt;JSP&amp;gt;&amp;gt;&lt;br&gt;Tomcat" style="verticalAlign=top;align=center;spacingTop=8;spacingLeft=2;spacingRight=12;shape=cube;size=10;direction=south;fontStyle=4;html=1;rounded=0;shadow=0;comic=0;labelBackgroundColor=none;strokeWidth=1;fontFamily=Verdana;fontSize=12" vertex="1" parent="1">
          <mxGeometry x="-90" y="-670" width="170" height="120" as="geometry" />
        </mxCell>
        <mxCell id="Wp49OkV0YaMOu1lBNxqz-5" value="&amp;lt;&amp;lt;device&amp;gt;&amp;gt; &lt;br&gt;Database Server" style="verticalAlign=top;align=center;spacingTop=8;spacingLeft=2;spacingRight=12;shape=cube;size=10;direction=south;fontStyle=4;html=1;rounded=0;shadow=0;comic=0;labelBackgroundColor=none;strokeWidth=1;fontFamily=Verdana;fontSize=12" vertex="1" parent="1">
          <mxGeometry x="793" y="-705" width="280" height="325" as="geometry" />
        </mxCell>
        <mxCell id="Wp49OkV0YaMOu1lBNxqz-3" value="&amp;lt;&amp;lt;Database System&amp;gt;&amp;gt;&lt;br&gt;MsSQL server 2022" style="verticalAlign=top;align=center;spacingTop=8;spacingLeft=2;spacingRight=12;shape=cube;size=10;direction=south;fontStyle=4;html=1;rounded=0;shadow=0;comic=0;labelBackgroundColor=none;strokeWidth=1;fontFamily=Verdana;fontSize=12" vertex="1" parent="1">
          <mxGeometry x="823" y="-640" width="220" height="240" as="geometry" />
        </mxCell>
        <mxCell id="Wp49OkV0YaMOu1lBNxqz-6" value="&amp;lt;&amp;lt;Spring&amp;gt;&amp;gt;&lt;br&gt;SpringMVC" style="verticalAlign=top;align=center;spacingTop=8;spacingLeft=2;spacingRight=12;shape=cube;size=10;direction=south;fontStyle=4;html=1;rounded=0;shadow=0;comic=0;labelBackgroundColor=none;strokeWidth=1;fontFamily=Verdana;fontSize=12" vertex="1" parent="1">
          <mxGeometry x="110" y="-670" width="360" height="120" as="geometry" />
        </mxCell>
        <mxCell id="Wp49OkV0YaMOu1lBNxqz-9" value="" style="endArrow=none;html=1;rounded=0;entryX=0;entryY=0;entryDx=220;entryDy=280;entryPerimeter=0;" edge="1" parent="1" target="Wp49OkV0YaMOu1lBNxqz-5">
          <mxGeometry width="50" height="50" relative="1" as="geometry">
            <mxPoint x="700" y="-485" as="sourcePoint" />
            <mxPoint x="463" y="-480" as="targetPoint" />
          </mxGeometry>
        </mxCell>
        <mxCell id="Wp49OkV0YaMOu1lBNxqz-10" value="&amp;lt;&amp;lt;protocol&amp;gt;&amp;gt;&lt;br&gt;TCP/IP" style="text;html=1;strokeColor=none;fillColor=none;align=center;verticalAlign=middle;whiteSpace=wrap;rounded=0;" vertex="1" parent="1">
          <mxGeometry x="720" y="-515" width="60" height="30" as="geometry" />
        </mxCell>
        <mxCell id="Wp49OkV0YaMOu1lBNxqz-11" value="&amp;lt;&amp;lt;device&amp;gt;&amp;gt;&lt;br&gt;sensor" style="verticalAlign=top;align=center;spacingTop=8;spacingLeft=2;spacingRight=12;shape=cube;size=10;direction=south;fontStyle=4;html=1;rounded=0;shadow=0;comic=0;labelBackgroundColor=none;strokeWidth=1;fontFamily=Verdana;fontSize=12" vertex="1" parent="1">
          <mxGeometry x="-120" y="-10" width="170" height="70" as="geometry" />
        </mxCell>
        <mxCell id="Wp49OkV0YaMOu1lBNxqz-12" value="&amp;lt;&amp;lt;network&amp;gt;&amp;gt;&lt;br&gt;localnetwork" style="verticalAlign=top;align=center;spacingTop=8;spacingLeft=2;spacingRight=12;shape=cube;size=10;direction=south;fontStyle=4;html=1;rounded=0;shadow=0;comic=0;labelBackgroundColor=none;strokeWidth=1;fontFamily=Verdana;fontSize=12" vertex="1" parent="1">
          <mxGeometry x="-110" y="-110" width="590" height="50" as="geometry" />
        </mxCell>
        <mxCell id="Wp49OkV0YaMOu1lBNxqz-14" value="" style="endArrow=none;html=1;rounded=0;exitX=0;exitY=0;exitDx=0;exitDy=80;exitPerimeter=0;" edge="1" parent="1" source="Wp49OkV0YaMOu1lBNxqz-11">
          <mxGeometry width="50" height="50" relative="1" as="geometry">
            <mxPoint x="500" y="-320" as="sourcePoint" />
            <mxPoint x="-30" y="-60" as="targetPoint" />
          </mxGeometry>
        </mxCell>
        <mxCell id="Wp49OkV0YaMOu1lBNxqz-15" value="" style="endArrow=none;html=1;rounded=0;exitX=0;exitY=0;exitDx=0;exitDy=80;exitPerimeter=0;" edge="1" parent="1">
          <mxGeometry width="50" height="50" relative="1" as="geometry">
            <mxPoint x="139.33" y="-10" as="sourcePoint" />
            <mxPoint x="139" y="-60" as="targetPoint" />
          </mxGeometry>
        </mxCell>
        <mxCell id="Wp49OkV0YaMOu1lBNxqz-18" value="&amp;lt;&amp;lt;protocol&amp;gt;&amp;gt;&lt;br&gt;TCP/IP" style="text;html=1;strokeColor=none;fillColor=none;align=center;verticalAlign=middle;whiteSpace=wrap;rounded=0;" vertex="1" parent="1">
          <mxGeometry x="150" y="-40" width="60" height="30" as="geometry" />
        </mxCell>
        <mxCell id="Wp49OkV0YaMOu1lBNxqz-19" value="&amp;lt;&amp;lt;protocol&amp;gt;&amp;gt;&lt;br&gt;TCP/IP" style="text;html=1;strokeColor=none;fillColor=none;align=center;verticalAlign=middle;whiteSpace=wrap;rounded=0;" vertex="1" parent="1">
          <mxGeometry x="-20" y="-40" width="60" height="30" as="geometry" />
        </mxCell>
        <mxCell id="Wp49OkV0YaMOu1lBNxqz-20" value="" style="shape=component;align=left;spacingLeft=36;rounded=0;shadow=0;comic=0;labelBackgroundColor=none;strokeWidth=1;fontFamily=Verdana;fontSize=12;html=1;" vertex="1" parent="1">
          <mxGeometry x="140" y="-620" width="300" height="60" as="geometry" />
        </mxCell>
        <mxCell id="Wp49OkV0YaMOu1lBNxqz-24" value="&amp;lt;&amp;lt;device&amp;gt;&amp;gt;&lt;br&gt;sensor" style="verticalAlign=top;align=center;spacingTop=8;spacingLeft=2;spacingRight=12;shape=cube;size=10;direction=south;fontStyle=4;html=1;rounded=0;shadow=0;comic=0;labelBackgroundColor=none;strokeWidth=1;fontFamily=Verdana;fontSize=12" vertex="1" parent="1">
          <mxGeometry x="60" y="-10" width="170" height="70" as="geometry" />
        </mxCell>
        <mxCell id="Wp49OkV0YaMOu1lBNxqz-25" value="" style="endArrow=none;html=1;rounded=0;entryX=1;entryY=0.623;entryDx=0;entryDy=0;entryPerimeter=0;" edge="1" parent="1" target="Wp49OkV0YaMOu1lBNxqz-1">
          <mxGeometry width="50" height="50" relative="1" as="geometry">
            <mxPoint x="195" y="-110" as="sourcePoint" />
            <mxPoint x="195" y="-160" as="targetPoint" />
            <Array as="points" />
          </mxGeometry>
        </mxCell>
        <mxCell id="Wp49OkV0YaMOu1lBNxqz-26" value="&amp;lt;&amp;lt;Device&amp;gt;&amp;gt;&lt;br&gt;NvidiaGPU" style="verticalAlign=top;align=center;spacingTop=8;spacingLeft=2;spacingRight=12;shape=cube;size=10;direction=south;fontStyle=4;html=1;rounded=0;shadow=0;comic=0;labelBackgroundColor=none;strokeWidth=1;fontFamily=Verdana;fontSize=12" vertex="1" parent="1">
          <mxGeometry x="480" y="-670" width="200" height="120" as="geometry" />
        </mxCell>
        <mxCell id="Wp49OkV0YaMOu1lBNxqz-28" value="&amp;lt;&amp;lt;excution Environment&amp;gt;&amp;gt;&lt;br&gt;JAVA" style="verticalAlign=top;align=center;spacingTop=8;spacingLeft=2;spacingRight=12;shape=cube;size=10;direction=south;fontStyle=4;html=1;rounded=0;shadow=0;comic=0;labelBackgroundColor=none;strokeWidth=1;fontFamily=Verdana;fontSize=12" vertex="1" parent="1">
          <mxGeometry x="-93" y="-520" width="773" height="330" as="geometry" />
        </mxCell>
        <mxCell id="Wp49OkV0YaMOu1lBNxqz-29" value="&amp;lt;&amp;lt;javafolder&amp;gt;&amp;gt;&lt;br&gt;Library" style="verticalAlign=top;align=center;spacingTop=8;spacingLeft=2;spacingRight=12;shape=cube;size=10;direction=south;fontStyle=4;html=1;rounded=0;shadow=0;comic=0;labelBackgroundColor=none;strokeWidth=1;fontFamily=Verdana;fontSize=12" vertex="1" parent="1">
          <mxGeometry x="-83" y="-470" width="733" height="270" as="geometry" />
        </mxCell>
        <mxCell id="Wp49OkV0YaMOu1lBNxqz-21" value="" style="shape=component;align=center;spacingLeft=36;rounded=0;shadow=0;comic=0;labelBackgroundColor=none;strokeWidth=1;fontFamily=Verdana;fontSize=12;html=1;" vertex="1" parent="1">
          <mxGeometry x="-78" y="-420" width="145" height="110" as="geometry" />
        </mxCell>
        <mxCell id="Wp49OkV0YaMOu1lBNxqz-22" value="&lt;div style=&quot;text-align: center;&quot;&gt;&lt;br&gt;&lt;/div&gt;&lt;br&gt;&lt;br&gt;" style="shape=component;align=left;spacingLeft=36;rounded=0;shadow=0;comic=0;labelBackgroundColor=none;strokeWidth=1;fontFamily=Verdana;fontSize=12;html=1;" vertex="1" parent="1">
          <mxGeometry x="77" y="-420" width="310" height="110" as="geometry" />
        </mxCell>
        <mxCell id="Wp49OkV0YaMOu1lBNxqz-31" value="&amp;lt;&amp;lt;schema&amp;gt;&amp;gt;&lt;br&gt;plant" style="shape=component;align=center;spacingLeft=36;rounded=0;shadow=0;comic=0;labelBackgroundColor=none;strokeWidth=1;fontFamily=Verdana;fontSize=12;html=1;" vertex="1" parent="1">
          <mxGeometry x="843" y="-555" width="160" height="60" as="geometry" />
        </mxCell>
        <mxCell id="Wp49OkV0YaMOu1lBNxqz-32" value="&lt;div style=&quot;text-align: center;&quot;&gt;&lt;span style=&quot;background-color: initial;&quot;&gt;&amp;lt;&amp;lt;schema&amp;gt;&amp;gt;&lt;/span&gt;&lt;/div&gt;anomalydetector&lt;br&gt;" style="shape=component;align=left;spacingLeft=36;rounded=0;shadow=0;comic=0;labelBackgroundColor=none;strokeWidth=1;fontFamily=Verdana;fontSize=12;html=1;" vertex="1" parent="1">
          <mxGeometry x="843" y="-485" width="160" height="60" as="geometry" />
        </mxCell>
        <mxCell id="Wp49OkV0YaMOu1lBNxqz-33" value="" style="endArrow=none;html=1;rounded=0;exitX=0;exitY=0;exitDx=0;exitDy=80;exitPerimeter=0;" edge="1" parent="1">
          <mxGeometry width="50" height="50" relative="1" as="geometry">
            <mxPoint x="329.33000000000004" y="-10" as="sourcePoint" />
            <mxPoint x="329" y="-60" as="targetPoint" />
          </mxGeometry>
        </mxCell>
        <mxCell id="Wp49OkV0YaMOu1lBNxqz-34" value="&amp;lt;&amp;lt;protocol&amp;gt;&amp;gt;&lt;br&gt;TCP/IP" style="text;html=1;strokeColor=none;fillColor=none;align=center;verticalAlign=middle;whiteSpace=wrap;rounded=0;" vertex="1" parent="1">
          <mxGeometry x="340" y="-40" width="60" height="30" as="geometry" />
        </mxCell>
        <mxCell id="Wp49OkV0YaMOu1lBNxqz-35" value="&amp;lt;&amp;lt;device&amp;gt;&amp;gt;&lt;br&gt;Actuator" style="verticalAlign=top;align=center;spacingTop=8;spacingLeft=2;spacingRight=12;shape=cube;size=10;direction=south;fontStyle=4;html=1;rounded=0;shadow=0;comic=0;labelBackgroundColor=none;strokeWidth=1;fontFamily=Verdana;fontSize=12" vertex="1" parent="1">
          <mxGeometry x="250" y="-10" width="170" height="70" as="geometry" />
        </mxCell>
        <mxCell id="Wp49OkV0YaMOu1lBNxqz-38" value="" style="endArrow=none;html=1;rounded=0;entryX=0;entryY=0;entryDx=65;entryDy=360;entryPerimeter=0;" edge="1" parent="1" target="Wp49OkV0YaMOu1lBNxqz-6">
          <mxGeometry width="50" height="50" relative="1" as="geometry">
            <mxPoint x="80" y="-605" as="sourcePoint" />
            <mxPoint x="320" y="-410" as="targetPoint" />
          </mxGeometry>
        </mxCell>
        <mxCell id="Wp49OkV0YaMOu1lBNxqz-39" value="" style="endArrow=none;html=1;rounded=0;exitX=0;exitY=0;exitDx=0;exitDy=290;exitPerimeter=0;" edge="1" parent="1" source="Wp49OkV0YaMOu1lBNxqz-28">
          <mxGeometry width="50" height="50" relative="1" as="geometry">
            <mxPoint x="190" y="-520" as="sourcePoint" />
            <mxPoint x="147" y="-550" as="targetPoint" />
          </mxGeometry>
        </mxCell>
        <mxCell id="Wp49OkV0YaMOu1lBNxqz-40" value="&amp;lt;&amp;lt;artifact&amp;gt;&amp;gt;&lt;br&gt;userView.jar" style="rounded=0;whiteSpace=wrap;html=1;" vertex="1" parent="1">
          <mxGeometry x="280" y="-610" width="120" height="40" as="geometry" />
        </mxCell>
        <mxCell id="Wp49OkV0YaMOu1lBNxqz-44" value="&amp;lt;&amp;lt;protocol&amp;gt;&amp;gt;&lt;br&gt;TCP/IP" style="text;html=1;strokeColor=none;fillColor=none;align=center;verticalAlign=middle;whiteSpace=wrap;rounded=0;" vertex="1" parent="1">
          <mxGeometry x="210" y="-150" width="60" height="30" as="geometry" />
        </mxCell>
        <mxCell id="Wp49OkV0YaMOu1lBNxqz-45" value="&amp;lt;&amp;lt;artifact&amp;gt;&amp;gt;&lt;br&gt;recovery_anomaly.jar" style="rounded=0;whiteSpace=wrap;html=1;" vertex="1" parent="1">
          <mxGeometry x="222" y="-410" width="145" height="40" as="geometry" />
        </mxCell>
        <mxCell id="Wp49OkV0YaMOu1lBNxqz-47" value="&amp;lt;&amp;lt;artifact&amp;gt;&amp;gt;&lt;br&gt;anomaly_detect.jar" style="rounded=0;whiteSpace=wrap;html=1;" vertex="1" parent="1">
          <mxGeometry x="-53" y="-355" width="110" height="30" as="geometry" />
        </mxCell>
        <mxCell id="Wp49OkV0YaMOu1lBNxqz-49" value="" style="shape=component;align=left;spacingLeft=36;rounded=0;shadow=0;comic=0;labelBackgroundColor=none;strokeWidth=1;fontFamily=Verdana;fontSize=12;html=1;" vertex="1" parent="1">
          <mxGeometry x="-78" y="-300" width="698" height="90" as="geometry" />
        </mxCell>
        <mxCell id="Wp49OkV0YaMOu1lBNxqz-51" value="&amp;lt;&amp;lt;service&amp;gt;&amp;gt;&lt;br style=&quot;border-color: var(--border-color); font-family: Verdana;&quot;&gt;&lt;span style=&quot;font-family: Verdana;&quot;&gt;anomaly&lt;/span&gt;&lt;br style=&quot;border-color: var(--border-color); font-family: Verdana;&quot;&gt;&lt;span style=&quot;font-family: Verdana;&quot;&gt;detector&lt;/span&gt;" style="text;html=1;strokeColor=none;fillColor=none;align=center;verticalAlign=middle;whiteSpace=wrap;rounded=0;" vertex="1" parent="1">
          <mxGeometry x="-28" y="-410" width="60" height="30" as="geometry" />
        </mxCell>
        <mxCell id="Wp49OkV0YaMOu1lBNxqz-52" value="&amp;lt;&amp;lt;service&amp;gt;&amp;gt;&lt;br&gt;remedy&lt;br&gt;management" style="text;html=1;strokeColor=none;fillColor=none;align=center;verticalAlign=middle;whiteSpace=wrap;rounded=0;" vertex="1" parent="1">
          <mxGeometry x="112" y="-410" width="70" height="30" as="geometry" />
        </mxCell>
        <mxCell id="Wp49OkV0YaMOu1lBNxqz-53" value="&amp;lt;&amp;lt;service&amp;gt;&amp;gt;&lt;br style=&quot;border-color: var(--border-color); font-family: Verdana;&quot;&gt;&lt;font face=&quot;Verdana&quot;&gt;plantdata&lt;br&gt;&lt;/font&gt;Management" style="text;html=1;strokeColor=none;fillColor=none;align=center;verticalAlign=middle;whiteSpace=wrap;rounded=0;" vertex="1" parent="1">
          <mxGeometry x="-33" y="-290" width="60" height="30" as="geometry" />
        </mxCell>
        <mxCell id="Wp49OkV0YaMOu1lBNxqz-54" value="&amp;lt;&amp;lt;artifact&amp;gt;&amp;gt;&lt;br&gt;remedy_method.jar" style="rounded=0;whiteSpace=wrap;html=1;" vertex="1" parent="1">
          <mxGeometry x="222" y="-360" width="145" height="40" as="geometry" />
        </mxCell>
        <mxCell id="Wp49OkV0YaMOu1lBNxqz-55" value="&amp;lt;&amp;lt;service&amp;gt;&amp;gt;&lt;br&gt;user&lt;br&gt;View" style="text;html=1;strokeColor=none;fillColor=none;align=center;verticalAlign=middle;whiteSpace=wrap;rounded=0;" vertex="1" parent="1">
          <mxGeometry x="180" y="-605" width="70" height="30" as="geometry" />
        </mxCell>
        <mxCell id="Wp49OkV0YaMOu1lBNxqz-56" value="&amp;lt;&amp;lt;artifact&amp;gt;&amp;gt;&lt;br&gt;recovery_anomaly.jar" style="rounded=0;whiteSpace=wrap;html=1;" vertex="1" parent="1">
          <mxGeometry x="50" y="-290" width="145" height="40" as="geometry" />
        </mxCell>
      </root>
    </mxGraphModel>
  </diagram>
</mxfile>
